<?xml version="1.0" encoding="UTF-8" standalone="no"?>
<!-- Created with Inkscape (http://www.inkscape.org/) -->

<svg
   xmlns:dc="http://purl.org/dc/elements/1.1/"
   xmlns:cc="http://creativecommons.org/ns#"
   xmlns:rdf="http://www.w3.org/1999/02/22-rdf-syntax-ns#"
   xmlns:svg="http://www.w3.org/2000/svg"
   xmlns="http://www.w3.org/2000/svg"
   xmlns:sodipodi="http://sodipodi.sourceforge.net/DTD/sodipodi-0.dtd"
   xmlns:inkscape="http://www.inkscape.org/namespaces/inkscape"
   width="210mm"
   height="297mm"
   viewBox="0 0 210 297"
   version="1.1"
   id="svg8"
   sodipodi:docname="greenflag.svg"
   inkscape:version="0.92.3 (2405546, 2018-03-11)">
  <defs
     id="defs2" />
  <sodipodi:namedview
     id="base"
     pagecolor="#ffffff"
     bordercolor="#666666"
     borderopacity="1.0"
     inkscape:pageopacity="0"
     inkscape:pageshadow="2"
     inkscape:zoom="0.7"
     inkscape:cx="75.063555"
     inkscape:cy="627.69571"
     inkscape:document-units="mm"
     inkscape:current-layer="layer1"
     showgrid="false"
     inkscape:window-width="1366"
     inkscape:window-height="705"
     inkscape:window-x="-8"
     inkscape:window-y="-8"
     inkscape:window-maximized="1" />
  <metadata
     id="metadata5">
    <rdf:RDF>
      <cc:Work
         rdf:about="">
        <dc:format>image/svg+xml</dc:format>
        <dc:type
           rdf:resource="http://purl.org/dc/dcmitype/StillImage" />
        <dc:title></dc:title>
      </cc:Work>
    </rdf:RDF>
  </metadata>
  <g
     inkscape:label="Layer 1"
     inkscape:groupmode="layer"
     id="layer1">
    <path
       inkscape:export-xdpi="114.8"
       inkscape:export-ydpi="114.8"
       style="fill:#20b422;fill-opacity:1;fill-rule:evenodd;stroke:#000000;stroke-width:0;stroke-linecap:butt;stroke-linejoin:miter;stroke-miterlimit:4;stroke-dasharray:none;stroke-opacity:1"
       d="M 401.13477 239.66211 C 313.51571 281.56687 251.39708 323.47219 138.2793 365.37695 C 127.28441 688.14604 318.2624 739.85138 400 776.80469 C 605.12611 721.65053 642.01813 539.52504 662.85742 356.80469 C 577.25165 320.44144 507.11124 303.18632 401.13477 239.66211 z M 554.36523 367.06445 A 11.273568 11.273568 0 0 1 563.23047 385.0918 L 563.18555 385.15039 L 563.11328 385.24609 L 393.94141 605.81055 A 11.273568 11.273568 0 0 1 386.29492 610.13477 A 11.273568 11.273568 0 0 1 374.75586 608.17969 L 272.61328 519.61133 A 11.274008 11.274008 0 0 1 287.23633 502.44922 L 287.38477 502.57422 L 381.88086 581.63477 L 545.34375 371.375 L 545.38867 371.31641 A 11.273568 11.273568 0 0 1 554.36523 367.06445 z "
       transform="scale(0.26458333)"
       id="path23" />
  </g>
</svg>
